{"title":"Mr Selfridge S04","uid":13834944,"size":5175598974,"categoryP":"video","categoryS":"tv_shows","magnet":"?xt=urn:btih:f7c63e473e01b45b09fcb35f03a233ccf09f6b7d&amp;dn=Mr+Selfridge+S04&amp;tr=udp%3A%2F%2Ftracker.leechers-paradise.org%3A6969&amp;tr=udp%3A%2F%2Fzer0day.ch%3A1337&amp;tr=udp%3A%2F%2Fopen.demonii.com%3A1337&amp;tr=udp%3A%2F%2Ftracker.coppersurfer.tk%3A6969&amp;tr=udp%3A%2F%2Fexodus.desync.com%3A6969","seeders":21,"leechers":3,"uploader":"RedBaron58","files":10,"time":1457749610,"description":"Mr Selfridge S04 x264 mp4\r\n \nhttp://www.imdb.com/title/tt2310212/\r\n\r\n\r\n\r\nThank you for your kind comments and feedback on my other torrents, your feedback is welcome.\r\n\r\n\r\nAbout the Series:\r\nI am not going to spoil the series for you but the series begins in in 1928 with harry holding\r\nextravagant parties in the south of France, and subsequent plots lead on from there.\r\nThis is the last series as we can see it at present.\r\n\r\nStaring Jeremy Piven, Katherine Kelly, Ron Cook and Tom Goodman-Hill\r\n\r\n\r\nI hope you enjoy.\r\n\r\n\r\nTechnical: (All episodes are encoded to the same settings)\r\n\r\nGeneral\r\nComplete name                            : G:Mr Selfridge S04Mr Selfridge S04E01 x264 RB58.mp4\r\nFormat                                   : MPEG-4\r\nFormat profile                           : Base Media\r\nCodec ID                                 : isom\r\nFile size                                : 483 MiB\r\nDuration                                 : 44mn 15s\r\nOverall bit rate                         : 1 525 Kbps\r\nWriting application                      : Lavf54.63.104\r\n\r\nVideo\r\nID                                       : 1\r\nFormat                                   : AVC\r\nFormat/Info                              : Advanced Video Codec\r\nFormat profile                           :   \r\nFormat settings, CABAC                   : Yes\r\nFormat settings, ReFrames                : 4 frames\r\nCodec ID                                 : avc1\r\nCodec ID/Info                            : Advanced Video Coding\r\nDuration                                 : 44mn 15s\r\nBit rate                                 : 1 400 Kbps\r\nWidth                                    : 832 pixels\r\nHeight                                   : 468 pixels\r\nDisplay aspect ratio                     : 16:9\r\nFrame rate mode                          : Constant\r\nFrame rate                               : 25.000 fps\r\nColor space                              : YUV\r\nChroma subsampling                       : 4:2:0\r\nBit depth                                : 8 bits\r\nScan type                                : Progressive\r\nBits/(Pixel*Frame)                       : 0.144\r\nStream size                              : 443 MiB (92%)\r\nWriting library                          : x264 core 123 r2189 35cf912\r\nEncoding settings                        : cabac=1 / ref=3 / deblock=1:0:0\r\n\r\nAudio\r\nID                                       : 2\r\nFormat                                   : AAC\r\nFormat/Info                              : Advanced Audio Codec\r\nFormat profile                           : LC\r\nCodec ID                                 : 40\r\nDuration                                 : 44mn 15s\r\nBit rate mode                            : Constant\r\nBit rate                                 : 116 Kbps\r\nChannel(s)                               : 2 channels\r\nChannel positions                        : Front: L R\r\nSampling rate                            : 48.0 KHz\r\nCompression mode                         : Lossy\r\nStream size                              : 36.9 MiB (8%)","torrent":{"xt":"urn:btih:f7c63e473e01b45b09fcb35f03a233ccf09f6b7d","amp;dn":"Mr+Selfridge+S04","amp;tr":["udp%3A%2F%2Ftracker.leechers-paradise.org%3A6969","udp%3A%2F%2Fzer0day.ch%3A1337","udp%3A%2F%2Fopen.demonii.com%3A1337","udp%3A%2F%2Ftracker.coppersurfer.tk%3A6969","udp%3A%2F%2Fexodus.desync.com%3A6969"],"infoHash":"f7c63e473e01b45b09fcb35f03a233ccf09f6b7d","infoHashBuffer":{"type":"Buffer","data":[247,198,62,71,62,1,180,91,9,252,179,95,3,162,51,204,240,159,107,125]},"announce":[],"urlList":[]}}